<?xml version="1.0" standalone="no"?>
<!DOCTYPE svg PUBLIC "-//W3C//DTD SVG 20010904//EN"
 "http://www.w3.org/TR/2001/REC-SVG-20010904/DTD/svg10.dtd">
<svg version="1.0" xmlns="http://www.w3.org/2000/svg"
 width="320.000000pt" height="320.000000pt" viewBox="0 0 320.000000 320.000000"
 preserveAspectRatio="xMidYMid meet">
<metadata>
Created by potrace 1.11, written by Peter Selinger 2001-2013
</metadata>
<g transform="translate(0.000000,320.000000) scale(0.100000,-0.100000)"
fill="#000000" stroke="none">
<path d="M0 1600 l0 -1600 1600 0 1600 0 0 1600 0 1600 -1600 0 -1600 0 0
-1600z m966 815 c1 -8 -2 -13 -7 -9 -5 3 -9 1 -9 -5 0 -6 14 -9 30 -7 20 2 33
-2 39 -12 7 -13 10 -12 15 6 4 12 12 22 17 22 6 0 7 6 3 13 -5 7 -1 7 12 -3
30 -22 30 -24 9 -16 -15 5 -17 4 -9 -4 9 -9 18 -8 35 2 13 8 33 13 44 13 11 0
24 4 28 10 5 6 7 4 4 -5 -2 -8 -9 -14 -15 -13 -5 1 -13 -4 -16 -12 -4 -13 0
-12 27 2 17 9 41 17 52 17 11 0 24 5 28 10 5 7 7 5 4 -4 -2 -8 -9 -14 -15 -13
-5 1 -13 -4 -16 -12 -5 -13 0 -13 27 1 17 9 35 21 38 26 4 6 13 2 20 -8 16
-21 49 -31 49 -14 0 6 -4 9 -9 5 -5 -3 -13 -1 -16 5 -4 6 -1 9 7 8 7 -2 12 3
10 10 -1 8 2 11 8 7 6 -3 8 -10 6 -13 -2 -4 1 -17 8 -29 l11 -23 14 23 c13 20
13 21 -2 8 -10 -7 -17 -9 -17 -3 0 17 29 22 43 7 8 -7 26 -12 41 -11 16 2 30
-3 36 -13 5 -9 10 -11 10 -5 1 31 65 68 65 37 0 -5 8 -17 18 -27 9 -10 17 -13
17 -7 0 5 -4 13 -10 16 -5 3 -10 11 -10 16 0 6 5 7 10 4 6 -3 10 0 10 7 1 8 7
6 18 -7 19 -22 52 -32 52 -15 0 6 -4 9 -9 5 -5 -3 -13 -1 -16 5 -4 6 -1 9 7 8
7 -2 12 3 10 10 -1 8 2 11 8 7 6 -3 8 -10 6 -13 -2 -4 1 -17 8 -29 l11 -23 14
23 c13 20 13 21 -2 8 -10 -7 -17 -9 -17 -3 0 17 29 22 43 7 8 -7 26 -12 41
-11 15 2 30 -3 34 -11 6 -11 11 -8 22 11 14 27 36 40 51 30 5 -3 7 -9 4 -14
-3 -5 4 -14 16 -20 16 -9 20 -9 14 -1 -4 8 3 10 26 6 30 -5 31 -4 18 12 -13
17 -13 17 6 1 12 -9 32 -15 48 -14 18 2 31 -2 34 -11 5 -12 7 -12 14 -1 5 7 9
18 9 23 0 6 -4 4 -9 -3 -7 -11 -9 -11 -14 2 -4 9 -1 15 6 13 7 -1 11 5 9 13
-2 8 0 11 5 7 4 -5 8 -14 8 -20 0 -7 9 -11 20 -9 19 2 19 2 2 -12 -10 -8 -14
-17 -9 -20 6 -3 13 1 16 10 3 8 11 12 17 8 8 -4 9 -3 5 4 -4 7 -2 12 3 12 6 0
11 -4 11 -10 0 -5 5 -10 11 -10 5 0 7 5 4 10 -3 6 -1 10 4 10 6 0 11 -4 11
-10 0 -5 5 -10 11 -10 5 0 7 5 4 10 -3 6 -2 10 4 10 5 0 13 -9 16 -20 6 -17 8
-18 21 -6 19 19 18 32 -1 16 -10 -9 -15 -9 -15 -1 0 11 4 13 43 14 12 1 26 6
30 11 5 7 7 5 4 -4 -2 -8 -9 -14 -15 -13 -5 1 -13 -4 -16 -12 -4 -13 0 -12 27
2 17 9 41 17 52 17 11 0 24 5 28 10 5 7 7 5 4 -4 -2 -8 -9 -14 -15 -13 -5 1
-13 -4 -16 -12 -5 -13 -2 -13 24 0 38 20 50 19 51 -2 1 -17 2 -17 6 0 2 9 9
17 14 17 6 0 8 -4 5 -8 -2 -4 4 -8 14 -9 11 -1 22 2 25 8 3 5 -2 6 -12 3 -14
-5 -15 -4 -4 4 18 13 41 4 42 -17 0 -11 3 -9 9 7 10 24 30 30 30 8 0 -17 24
-27 47 -20 15 5 16 4 3 -5 -8 -6 -10 -11 -5 -11 6 0 16 -9 23 -21 8 -12 9 -18
3 -14 -6 3 -11 4 -11 1 0 -2 -3 -12 -6 -20 -5 -12 -2 -15 12 -9 12 4 15 3 10
-5 -4 -7 -13 -12 -19 -12 -8 0 -12 -14 -12 -35 0 -29 3 -34 19 -29 12 4 16 2
12 -5 -4 -6 -16 -11 -26 -11 -10 0 -22 -4 -25 -10 -3 -5 0 -7 9 -4 11 4 14 -2
12 -25 -2 -27 1 -30 17 -25 13 4 17 2 13 -5 -4 -6 -16 -11 -26 -11 -10 0 -21
-4 -24 -9 -3 -4 5 -7 18 -6 14 2 23 -2 23 -11 0 -10 -4 -11 -13 -3 -8 7 -14 6
-20 -2 -4 -8 -3 -9 4 -5 7 4 12 1 12 -9 0 -10 -5 -13 -12 -9 -7 4 -8 3 -4 -5
5 -7 16 -9 28 -5 14 4 18 2 14 -5 -4 -6 -16 -11 -26 -11 -10 0 -21 -4 -24 -9
-4 -5 2 -7 13 -4 23 6 38 -14 22 -30 -9 -9 -11 -8 -6 6 5 10 2 17 -6 17 -7 0
-9 -3 -6 -7 4 -3 -1 -12 -11 -20 -16 -12 -16 -13 2 -6 14 5 17 3 11 -6 -6 -10
-2 -11 15 -6 15 5 20 4 16 -4 -4 -6 -16 -11 -26 -11 -10 0 -22 -4 -25 -10 -3
-5 0 -7 7 -5 9 4 14 -2 15 -15 1 -11 -2 -18 -8 -15 -5 4 -9 1 -9 -6 0 -7 8 -9
21 -6 16 4 19 3 11 -5 -8 -8 -8 -17 -1 -31 9 -15 7 -23 -6 -36 -10 -9 -15 -10
-11 -3 4 6 2 12 -3 12 -14 0 -14 -17 -1 -25 6 -4 7 -11 4 -17 -5 -7 -12 -4
-21 7 -7 11 -13 13 -13 6 0 -7 -4 -10 -9 -7 -5 3 -14 -1 -21 -9 -9 -11 -17
-12 -31 -5 -14 8 -23 6 -41 -12 -14 -14 -19 -16 -15 -5 9 24 -14 38 -36 22
-11 -8 -14 -16 -8 -19 5 -4 14 2 20 11 9 16 10 16 11 2 0 -23 -22 -30 -45 -13
-15 11 -22 11 -34 1 -14 -10 -14 -10 -4 3 10 13 9 16 -7 17 -11 1 -23 -3 -26
-9 -4 -7 -2 -8 4 -4 7 4 12 2 12 -4 0 -7 -7 -10 -15 -6 -8 3 -15 0 -15 -6 0
-6 -3 -9 -6 -6 -3 4 -1 16 6 27 7 14 7 21 0 21 -5 0 -10 -3 -10 -8 0 -4 -16
-7 -35 -8 -20 0 -32 3 -28 9 3 6 1 7 -6 3 -6 -4 -9 -11 -6 -16 3 -5 1 -11 -4
-14 -5 -4 -8 5 -7 19 2 13 -1 22 -5 19 -5 -3 -9 -13 -9 -24 0 -22 -23 -33 -38
-18 -8 8 -16 7 -28 -3 -12 -9 -15 -10 -10 -1 4 6 2 12 -3 12 -6 0 -12 8 -12
18 -1 16 -2 16 -6 0 -2 -10 -9 -18 -14 -18 -6 0 -8 4 -5 8 2 4 -6 9 -20 10
-13 1 -24 -3 -24 -8 0 -5 8 -7 18 -4 14 5 14 4 3 -4 -9 -7 -21 -7 -31 -2 -11
6 -21 5 -28 -2 -15 -15 -35 1 -29 23 3 11 1 17 -4 13 -5 -3 -9 -14 -9 -24 0
-10 -5 -22 -11 -26 -7 -4 -9 0 -5 14 4 12 2 23 -5 28 -8 4 -9 3 -5 -4 4 -7 2
-12 -4 -12 -6 0 -8 -5 -4 -11 5 -8 1 -8 -13 0 -14 7 -24 7 -33 -2 -12 -10 -12
-9 -3 3 10 13 8 16 -7 17 -11 1 -23 -3 -26 -9 -4 -7 -2 -8 4 -4 7 4 12 2 12
-4 0 -7 -7 -10 -15 -6 -8 3 -15 0 -15 -6 0 -6 -3 -9 -6 -6 -3 4 -1 16 6 27 7
14 7 21 0 21 -5 0 -10 -3 -10 -8 0 -4 -16 -7 -35 -8 -20 0 -32 3 -28 9 3 6 1
7 -6 3 -8 -6 -9 -12 -2 -20 8 -9 7 -13 -3 -13 -9 0 -13 9 -11 23 1 13 -2 21
-6 18 -5 -3 -9 -13 -9 -24 0 -22 -23 -33 -38 -18 -8 8 -16 7 -28 -3 -12 -9
-15 -10 -10 -1 4 6 2 12 -3 12 -6 0 -12 8 -12 18 -1 16 -2 16 -6 0 -2 -10 -9
-18 -14 -18 -6 0 -8 4 -5 8 2 4 -6 9 -20 10 -13 1 -24 -3 -24 -8 0 -5 8 -7 18
-4 14 5 14 4 3 -4 -9 -7 -21 -7 -31 -2 -11 6 -21 5 -28 -2 -15 -15 -35 1 -29
23 3 11 1 17 -4 13 -5 -3 -9 -14 -9 -24 0 -10 -5 -22 -11 -26 -7 -4 -9 0 -5
14 4 12 2 23 -5 28 -8 4 -9 3 -5 -4 4 -7 2 -12 -4 -12 -6 0 -8 -5 -4 -11 5 -8
1 -8 -13 0 -14 7 -24 7 -33 -2 -12 -10 -12 -9 -3 3 10 13 8 16 -7 17 -11 1
-23 -3 -26 -9 -4 -7 -2 -8 4 -4 7 4 12 2 12 -4 0 -7 -7 -10 -15 -6 -8 3 -15 0
-15 -6 0 -6 -3 -9 -6 -6 -3 4 -1 16 6 27 7 14 7 21 0 21 -5 0 -10 -4 -10 -8 0
-12 -67 -7 -83 6 -10 8 -16 5 -26 -11 -11 -18 -11 -20 0 -9 15 14 33 16 25 3
-3 -4 6 -7 19 -5 14 1 25 -2 25 -8 0 -6 -7 -7 -16 -4 -9 4 -24 1 -32 -6 -11
-9 -14 -9 -9 -1 5 7 1 12 -10 12 -30 1 -52 1 -65 0 -7 0 -26 2 -41 6 -17 3
-26 2 -23 -4 3 -5 -3 -7 -14 -4 -11 3 -21 13 -21 22 -1 14 -2 13 -6 -1 -2 -10
-9 -18 -14 -18 -6 0 -8 4 -5 8 2 4 -6 9 -20 10 -13 1 -24 -3 -24 -8 0 -5 8 -7
18 -4 14 5 15 4 2 -5 -11 -7 -25 -4 -56 13 l-41 23 -13 -21 c-10 -17 -10 -19
1 -8 15 14 33 16 24 2 -3 -5 0 -7 8 -4 8 3 18 0 23 -7 4 -8 3 -10 -5 -5 -6 4
-19 2 -28 -6 -11 -8 -14 -8 -10 -1 5 7 1 12 -10 12 -28 1 -52 1 -65 0 -7 0
-22 2 -33 5 -11 2 -24 5 -28 5 -5 1 -6 5 -3 9 3 5 -1 9 -9 9 -13 0 -13 -3 1
-18 15 -16 14 -17 -5 -12 -12 3 -22 13 -22 22 -1 12 -2 12 -6 -3 -4 -15 -7
-16 -14 -5 -7 11 -9 11 -9 -3 0 -9 -5 -20 -11 -24 -7 -4 -9 0 -5 14 6 17 3 20
-13 17 -11 -2 -23 0 -26 5 -3 5 -20 7 -37 3 -26 -5 -30 -3 -25 9 3 9 0 21 -6
28 -10 10 -7 10 12 0 19 -10 21 -14 10 -21 -9 -6 -10 -9 -2 -9 19 0 24 17 9
30 -8 6 -13 20 -11 31 3 16 0 19 -17 13 -14 -4 -18 -2 -14 5 4 6 14 11 23 11
11 0 9 5 -8 21 -13 11 -18 18 -11 14 9 -5 11 3 7 29 -2 20 0 36 5 36 4 0 7
-11 6 -25 -2 -13 1 -22 5 -19 5 3 9 0 9 -5 0 -6 5 -11 10 -11 6 0 5 9 -3 23
-8 12 -13 32 -12 45 2 19 0 20 -14 10 -14 -11 -14 -11 -4 3 10 12 9 20 -4 40
-14 20 -14 22 -1 11 12 -10 18 -9 28 3 11 13 10 14 -2 10 -9 -4 -18 0 -21 9
-4 11 -1 13 10 9 12 -5 14 -3 7 8 -10 17 -15 38 -15 62 0 11 -5 15 -12 10 -8
-5 -8 -2 1 9 7 8 10 23 6 32 -3 9 -2 16 4 16 6 0 9 -11 8 -25 -2 -13 1 -22 5
-19 13 8 11 -10 -3 -25 -11 -11 -9 -11 9 0 17 10 19 16 11 26 -6 7 -11 23 -12
36 -1 12 -8 21 -15 19 -7 -1 -10 2 -6 8 3 6 11 8 16 5 5 -4 9 -1 9 4 0 6 -3
11 -8 11 -4 0 -13 10 -21 23 -13 21 -13 21 5 5 18 -16 19 -15 21 9 1 19 -1 22
-8 12 -8 -11 -9 -9 -7 6 1 11 -1 26 -6 33 -7 12 -4 12 13 2 16 -8 26 -8 35 -1
7 6 17 7 21 3 5 -4 1 7 -10 23 -12 20 -13 26 -4 18 16 -13 58 -14 75 -1 6 4
11 2 11 -7 0 -8 -4 -12 -9 -9 -4 3 -8 0 -8 -6 0 -7 8 -9 21 -5 15 5 19 4 14
-5 -6 -9 -3 -9 14 -1 24 13 29 23 7 15 -8 -3 -17 -1 -21 5 -3 7 0 8 9 5 9 -3
16 -1 16 5 0 6 5 11 11 11 5 0 8 -4 4 -9 -3 -6 4 -15 16 -22 19 -10 21 -9 16
5 -4 9 -2 16 3 16 6 0 10 -7 10 -15 0 -8 5 -15 11 -15 6 0 8 8 5 18 -5 14 -4
14 9 -2 8 -11 18 -17 21 -13 4 4 1 15 -7 24 -13 16 -12 17 3 5 12 -9 17 -10
20 -1 2 7 8 6 17 -5 12 -14 12 -16 -3 -10 -17 7 -19 4 -10 -19 5 -14 8 -13 23
1 10 9 16 20 14 25 -3 4 1 6 9 5 7 -2 12 4 10 12 -2 8 0 11 4 7 4 -4 9 -14 10
-22z m502 2 c8 -10 6 -13 -7 -13 -11 0 -17 6 -14 13 3 7 6 13 8 13 1 0 7 -6
13 -13z m320 0 c8 -10 6 -13 -7 -13 -11 0 -17 6 -14 13 3 7 6 13 8 13 1 0 7
-6 13 -13z m224 4 c3 8 7 7 16 -3 9 -12 8 -14 -8 -13 -11 1 -26 8 -33 15 -10
12 -9 12 5 2 12 -10 17 -10 20 -1z m-982 -24 c0 -8 -3 -8 -11 0 -6 6 -19 9
-28 6 -13 -4 -13 -3 -2 5 16 12 41 5 41 -11z m483 6 c-3 -7 -6 -13 -8 -13 -2
0 -5 6 -8 13 -3 8 1 14 8 14 7 0 11 -6 8 -14z m320 0 c-3 -7 -6 -13 -8 -13 -2
0 -5 6 -8 13 -3 8 1 14 8 14 7 0 11 -6 8 -14z m117 7 c0 -5 -2 -10 -4 -10 -3
0 -8 5 -11 10 -3 6 -1 10 4 10 6 0 11 -4 11 -10z m-1315 -12 c4 -3 2 -9 -3
-12 -5 -3 -15 1 -21 8 -10 11 -9 14 3 12 9 -1 18 -5 21 -8z m1955 6 c0 -8 -19
-13 -24 -6 -3 5 1 9 9 9 8 0 15 -2 15 -3z m27 -139 c0 -8 -4 -12 -9 -9 -5 3
-6 10 -3 15 9 13 12 11 12 -6z m3 -85 c0 -5 -2 -10 -4 -10 -3 0 -8 5 -11 10
-3 6 -1 10 4 10 6 0 11 -4 11 -10z m-3 -235 c0 -8 -4 -12 -9 -9 -5 3 -6 10 -3
15 9 13 12 11 12 -6z m-1964 -148 c3 -8 -3 -13 -17 -14 -11 0 -15 1 -8 4 6 3
10 9 6 14 -3 5 -1 9 4 9 6 0 12 -6 15 -13z m1893 -13 c-4 -9 -9 -15 -11 -12
-3 3 -3 13 1 22 4 9 9 15 11 12 3 -3 3 -13 -1 -22z m-1229 1 c0 -8 -4 -12 -9
-9 -5 3 -6 10 -3 15 9 13 12 11 12 -6z m480 0 c0 -8 -4 -12 -9 -9 -5 3 -6 10
-3 15 9 13 12 11 12 -6z m453 5 c0 -5 -5 -10 -11 -10 -5 0 -7 5 -4 10 3 6 8
10 11 10 2 0 4 -4 4 -10z m27 -5 c0 -8 -4 -12 -9 -9 -5 3 -6 10 -3 15 9 13 12
11 12 -6z m217 7 c3 -5 -1 -9 -9 -9 -8 0 -12 4 -9 9 3 4 7 8 9 8 2 0 6 -4 9
-8z m-1719 -382 c-3 -5 4 -14 16 -20 13 -8 19 -8 15 -2 -4 6 2 10 14 9 13 -1
19 -6 15 -15 -2 -7 0 -10 5 -7 6 3 10 15 10 25 0 10 5 22 11 26 8 4 9 -1 4
-16 -5 -15 -4 -20 4 -16 6 4 22 -1 36 -10 15 -10 25 -12 25 -5 0 6 -6 11 -14
11 -7 0 -18 6 -25 13 -8 11 -5 13 19 9 19 -3 30 -11 31 -21 1 -14 2 -13 6 2 2
9 9 17 14 17 6 0 7 -5 3 -11 -3 -6 4 -4 17 5 16 10 29 12 39 6 9 -5 19 -5 27
1 17 15 36 1 30 -22 -3 -11 -1 -17 4 -13 5 3 9 14 9 24 0 10 5 22 11 26 7 4 9
0 5 -14 -4 -12 -2 -23 5 -28 8 -4 9 -3 5 4 -4 7 -2 12 4 12 6 0 8 5 4 11 -5 8
-1 8 13 0 14 -7 24 -7 33 2 10 9 11 9 6 0 -9 -17 14 -28 27 -13 9 10 9 11 0 6
-7 -4 -13 -2 -13 3 0 14 6 14 33 -1 12 -7 34 -13 49 -14 15 0 34 -7 43 -14 10
-8 15 -9 15 -1 0 6 -5 11 -11 11 -5 0 -8 4 -5 9 3 4 -6 7 -19 5 -14 -1 -25 2
-25 8 0 6 7 7 16 4 9 -4 24 -1 32 6 13 11 14 11 8 0 -5 -9 -3 -13 5 -11 28 3
40 -1 33 -13 -4 -6 3 -4 16 5 15 10 29 13 39 8 16 -9 23 -11 42 -11 5 0 7 -5
3 -12 -4 -7 -3 -8 5 -4 9 6 9 11 1 21 -9 11 -7 12 10 8 13 -3 19 -11 16 -19
-3 -8 -1 -14 4 -14 6 0 10 7 10 15 0 8 5 15 11 15 5 0 7 -5 3 -11 -3 -6 4 -4
17 5 17 10 29 12 39 6 21 -13 33 -12 24 2 -4 7 -3 8 5 4 6 -4 19 -2 28 6 14
10 15 10 9 0 -5 -9 -3 -13 5 -11 28 3 40 -1 33 -13 -4 -6 3 -4 16 5 15 10 29
13 39 8 16 -9 23 -11 42 -11 5 0 7 -5 3 -12 -4 -7 -3 -8 5 -4 9 6 9 11 1 21
-9 11 -7 12 10 8 13 -3 19 -11 16 -19 -3 -8 -1 -14 4 -14 6 0 10 7 10 15 0 8
5 15 11 15 5 0 7 -5 3 -11 -3 -6 4 -4 17 4 20 12 29 12 52 3 15 -7 24 -16 20
-21 -5 -4 -2 -5 5 -1 9 6 10 11 3 20 -8 9 -7 13 3 13 9 0 13 -9 11 -23 -1 -13
2 -21 6 -18 5 3 9 14 9 24 0 10 5 22 11 26 8 4 9 -1 4 -16 -5 -16 -4 -20 4
-15 7 4 23 -1 36 -9 14 -9 25 -12 25 -6 0 5 -4 10 -8 10 -5 0 -16 6 -27 13
-16 13 -15 14 13 9 20 -3 32 -10 33 -21 1 -14 2 -13 6 2 2 9 9 17 14 17 6 0 7
-5 3 -11 -3 -6 4 -4 17 5 16 10 29 12 39 6 9 -5 19 -5 27 1 17 15 36 1 30 -22
-3 -11 -1 -17 4 -13 5 3 9 14 9 24 0 10 5 22 11 26 7 4 9 0 5 -14 -4 -12 -2
-23 5 -28 8 -4 9 -3 5 4 -4 7 -2 12 4 12 6 0 8 5 4 11 -5 8 -1 8 13 0 14 -7
24 -7 33 2 10 9 11 9 6 0 -9 -17 14 -28 27 -13 9 10 9 11 0 6 -7 -4 -13 -2
-13 3 0 15 12 14 38 -5 12 -8 22 -12 22 -9 0 3 10 1 21 -6 13 -7 19 -7 15 -1
-4 6 2 10 14 9 13 -1 19 -6 15 -15 -2 -7 0 -10 5 -7 6 3 10 15 10 25 0 10 5
22 11 26 8 4 9 -1 4 -17 -7 -21 -6 -22 9 -10 19 16 22 2 4 -19 -7 -8 -3 -6 9
4 13 10 20 23 16 29 -3 6 -1 7 6 3 6 -4 9 -11 7 -15 -3 -4 2 -8 10 -8 9 0 13
6 10 14 -3 8 -2 12 3 8 5 -3 12 1 15 7 3 7 4 4 1 -7 -2 -11 0 -27 6 -35 10
-13 10 -13 6 1 -3 9 -1 22 5 30 8 11 9 11 5 -3 -6 -16 17 -33 33 -23 11 7 0
-36 -14 -54 -8 -11 -8 -13 0 -8 7 4 14 1 17 -6 5 -14 -6 -39 -17 -38 -3 1 -6
-2 -5 -6 0 -5 9 -7 20 -6 11 2 17 -1 14 -7 -3 -6 -15 -10 -25 -10 -10 0 -22
-4 -25 -10 -3 -5 0 -7 9 -4 11 4 14 -2 12 -25 -2 -27 1 -30 17 -25 13 4 17 2
13 -5 -4 -6 -16 -11 -26 -11 -10 0 -21 -4 -24 -9 -3 -4 5 -7 18 -6 14 2 23 -2
23 -11 0 -10 -4 -11 -13 -3 -8 7 -14 6 -20 -2 -5 -8 -3 -9 6 -4 10 6 12 3 7
-14 -4 -18 -2 -21 15 -15 14 4 18 2 14 -5 -4 -6 -16 -11 -26 -11 -10 0 -22 -4
-25 -10 -3 -5 0 -7 9 -4 11 4 14 -2 12 -25 -2 -27 1 -30 17 -25 13 4 17 2 13
-5 -4 -6 -16 -11 -26 -11 -10 0 -21 -4 -24 -9 -3 -4 5 -7 18 -6 14 2 23 -2 23
-11 0 -10 -4 -11 -13 -3 -8 7 -14 6 -20 -2 -5 -8 -3 -9 6 -4 10 6 12 3 7 -14
-4 -18 -2 -21 15 -15 14 4 18 2 14 -5 -4 -6 -17 -11 -29 -12 l-22 0 23 -9 c23
-10 29 -25 12 -35 -6 -3 -7 1 -4 9 3 9 2 16 -4 16 -13 0 -10 -24 7 -44 12 -14
11 -16 -5 -17 -11 -1 -23 -1 -29 1 -5 1 -1 -7 8 -18 11 -12 14 -22 8 -26 -5
-4 -14 2 -20 11 -6 10 -11 13 -11 6 0 -7 -6 -11 -12 -9 -7 1 -10 1 -5 -1 11
-7 8 -31 -5 -39 -7 -5 -9 -2 -5 9 3 9 0 18 -9 21 -9 3 -12 1 -9 -4 3 -6 -1
-10 -10 -10 -9 0 -14 4 -11 8 7 11 -55 10 -72 -1 -20 -13 -62 -16 -69 -4 -3 6
-1 7 4 4 6 -4 13 0 16 8 5 12 2 12 -18 3 -21 -9 -23 -14 -12 -27 10 -14 10
-14 -3 -5 -8 6 -25 10 -38 9 -13 -1 -26 3 -29 8 -3 6 -1 7 4 4 6 -4 13 0 16 8
5 12 2 12 -18 3 -21 -9 -23 -14 -13 -27 9 -11 7 -11 -8 2 -12 10 -34 20 -49
23 -26 5 -27 3 -14 -12 8 -10 9 -15 2 -11 -6 4 -14 1 -17 -5 -3 -7 -4 -4 -3 7
2 16 -4 20 -31 20 -18 0 -37 7 -42 15 -5 8 -10 12 -10 8 0 -3 -3 -15 -6 -25
-4 -13 -3 -14 4 -5 7 11 10 11 15 -2 4 -9 1 -15 -6 -13 -7 1 -11 -5 -9 -13 2
-8 0 -11 -5 -7 -4 5 -8 14 -8 20 0 7 -9 11 -20 9 -19 -2 -19 -2 -2 12 10 8 14
17 9 20 -6 3 -13 -1 -16 -10 -3 -8 -11 -12 -17 -8 -8 4 -9 3 -5 -4 4 -7 2 -12
-3 -12 -6 0 -11 5 -11 10 0 6 -5 10 -11 10 -5 0 -7 -4 -4 -10 3 -6 1 -10 -4
-10 -6 0 -11 5 -11 10 0 6 -5 10 -11 10 -5 0 -7 -4 -4 -10 3 -5 2 -10 -4 -10
-5 0 -13 9 -16 20 -6 17 -8 18 -21 6 -19 -19 -18 -32 1 -16 10 9 15 9 15 1 0
-6 -3 -11 -7 -12 -5 0 -18 -2 -31 -3 -13 -2 -26 2 -29 7 -3 6 -1 7 4 4 6 -4
13 0 16 8 5 12 2 12 -18 3 -21 -9 -23 -14 -12 -27 10 -14 10 -14 -3 -5 -8 6
-25 10 -38 9 -13 -1 -26 3 -29 8 -3 6 -1 7 4 4 6 -4 13 0 16 8 5 12 2 12 -18
3 -21 -9 -23 -14 -13 -27 7 -9 -1 -5 -16 9 -22 19 -28 21 -23 8 4 -10 2 -18
-3 -18 -6 0 -10 7 -10 15 0 8 -5 15 -11 15 -6 0 -8 -7 -5 -16 3 -8 2 -13 -3
-9 -5 3 -12 -1 -15 -7 -3 -7 -3 -3 0 10 7 28 -10 29 -22 1 -9 -19 -11 -20 -23
-5 -12 14 -12 16 3 10 17 -7 19 -4 10 19 -5 14 -8 13 -23 -1 -10 -9 -16 -20
-14 -25 3 -4 -1 -6 -9 -5 -7 2 -12 -4 -10 -12 2 -8 0 -11 -4 -7 -11 11 -14 38
-3 31 5 -3 9 -1 9 5 0 6 -14 9 -30 7 -20 -2 -33 2 -39 12 -7 13 -10 12 -15 -6
-4 -12 -12 -22 -17 -22 -6 0 -7 -5 -3 -11 3 -6 -5 -4 -18 5 -14 9 -27 13 -30
10 -11 -10 -58 -11 -65 -1 -3 6 -1 7 4 4 6 -4 13 0 16 8 5 12 2 12 -18 3 -21
-9 -23 -14 -12 -27 10 -14 10 -14 -3 -5 -8 6 -25 10 -38 9 -13 -1 -26 3 -29 8
-3 6 -1 7 4 4 6 -4 13 0 16 8 5 12 2 12 -18 3 -21 -9 -23 -14 -13 -27 9 -11 7
-11 -8 2 -12 10 -34 20 -49 23 -26 5 -27 3 -14 -12 8 -10 9 -15 2 -11 -6 4
-14 1 -17 -5 -3 -7 -4 -4 -3 7 2 16 -4 20 -31 20 -18 0 -37 7 -42 15 -5 8 -10
12 -10 8 0 -3 -3 -15 -6 -25 -4 -13 -3 -14 4 -5 7 11 10 11 15 -2 4 -9 1 -15
-6 -13 -7 1 -10 -5 -9 -13 2 -8 0 -11 -5 -7 -4 5 -8 14 -8 20 0 7 -9 11 -20 9
-19 -2 -19 -2 -2 12 10 8 14 17 9 20 -6 3 -13 -1 -16 -10 -3 -8 -11 -12 -17
-8 -8 4 -9 3 -5 -4 4 -7 2 -12 -3 -12 -6 0 -11 5 -11 10 0 6 -5 10 -11 10 -5
0 -7 -4 -4 -10 3 -5 1 -10 -4 -10 -6 0 -11 5 -11 10 0 6 -5 10 -11 10 -5 0 -7
-4 -4 -10 3 -5 2 -10 -4 -10 -5 0 -13 9 -16 20 -6 17 -8 18 -21 6 -19 -19 -18
-32 1 -16 10 9 15 9 15 1 0 -6 -3 -11 -7 -12 -5 0 -18 -2 -31 -3 -13 -2 -26 2
-29 7 -3 6 -1 7 4 4 6 -4 13 0 16 8 5 12 2 12 -18 3 -21 -9 -23 -14 -12 -27
10 -14 10 -14 -3 -5 -8 6 -25 10 -38 9 -13 -1 -26 3 -29 8 -3 6 -1 7 4 4 6 -4
14 0 17 8 5 14 2 14 -24 0 -38 -20 -50 -19 -51 3 -1 16 -2 16 -6 0 -2 -10 -9
-18 -14 -18 -6 0 -8 4 -5 8 2 4 -4 8 -14 9 -11 1 -22 -2 -25 -8 -3 -5 2 -6 12
-3 14 5 15 4 4 -4 -18 -13 -41 -4 -42 17 0 11 -3 9 -9 -6 -11 -26 -30 -31 -30
-8 0 8 -2 15 -4 15 -2 0 -12 3 -20 6 -13 5 -15 2 -9 -12 6 -16 5 -17 -9 -4
-11 11 -12 17 -4 22 6 4 7 8 1 8 -6 0 -16 9 -23 21 -8 12 -9 18 -3 14 6 -3 11
-4 11 -1 0 2 3 12 6 20 5 12 2 15 -12 9 -12 -4 -15 -3 -10 5 4 7 13 12 19 12
8 0 12 14 12 35 0 29 -3 34 -19 29 -12 -4 -16 -2 -12 5 4 6 16 11 26 11 10 0
22 4 25 10 3 5 0 7 -9 4 -11 -4 -14 2 -12 25 2 34 -3 38 -23 19 -10 -11 -11
-10 -6 5 4 9 15 17 25 17 11 0 21 4 24 9 3 4 -6 7 -19 5 -14 -1 -23 2 -19 7 3
5 9 7 14 4 5 -3 12 0 16 6 4 8 3 9 -4 5 -7 -4 -12 -1 -12 9 0 10 5 13 12 9 7
-4 8 -3 4 5 -5 7 -16 9 -28 5 -14 -4 -18 -2 -14 5 4 6 16 11 26 11 10 0 21 4
24 9 4 5 -2 7 -13 4 -23 -6 -38 14 -22 30 9 9 11 8 6 -5 -5 -11 -2 -18 6 -18
7 0 9 3 6 7 -4 3 1 12 11 20 16 12 16 13 -2 6 -14 -5 -17 -3 -11 6 6 10 2 11
-15 6 -15 -5 -20 -4 -16 4 4 6 16 11 26 11 10 0 22 4 25 10 3 5 0 7 -7 5 -9
-4 -14 2 -15 15 -1 13 3 18 10 14 7 -3 -1 6 -18 21 -16 14 -25 24 -20 21 6 -2
17 -1 25 5 12 7 12 9 1 9 -8 0 -11 6 -7 16 4 10 2 13 -6 8 -7 -4 -8 -3 -4 5 4
6 15 10 24 9 11 -2 16 3 15 15 -1 14 4 17 18 14 10 -3 17 -1 13 4 -10 16 9 9
22 -8 12 -15 13 -16 8 -2 -3 10 0 20 7 25 7 4 10 3 5 -4 -10 -16 14 -26 27
-12 9 10 9 11 0 6 -7 -4 -13 -2 -13 4 0 8 7 9 18 5 29 -11 37 -11 34 3 -1 8 2
11 8 7 6 -3 8 -10 5 -15z m480 11 c3 -5 2 -12 -3 -15 -5 -3 -9 1 -9 9 0 17 3
19 12 6z m1120 0 c3 -5 2 -12 -3 -15 -5 -3 -9 1 -9 9 0 17 3 19 12 6z m-1535
-7 c0 -8 -19 -13 -24 -6 -3 5 1 9 9 9 8 0 15 -2 15 -3z m1600 0 c0 -8 -19 -13
-24 -6 -3 5 1 9 9 9 8 0 15 -2 15 -3z m-1825 -34 c3 -6 -1 -7 -9 -4 -18 7 -21
14 -7 14 6 0 13 -4 16 -10z m-20 -119 c3 -5 2 -12 -3 -15 -5 -3 -9 1 -9 9 0
17 3 19 12 6z m2025 -41 c0 -5 -2 -10 -4 -10 -3 0 -8 5 -11 10 -3 6 -1 10 4
10 6 0 11 -4 11 -10z m0 -160 c0 -5 -2 -10 -4 -10 -3 0 -8 5 -11 10 -3 6 -1
10 4 10 6 0 11 -4 11 -10z m-2025 -40 c3 -5 1 -10 -4 -10 -6 0 -11 5 -11 10 0
6 2 10 4 10 3 0 8 -4 11 -10z m0 -79 c3 -5 2 -12 -3 -15 -5 -3 -9 1 -9 9 0 17
3 19 12 6z m974 -144 c13 4 13 3 2 -5 -16 -12 -41 -5 -41 11 0 8 3 8 11 0 6
-6 19 -9 28 -6z m-376 -14 c-4 -10 -9 -11 -19 -2 -18 15 -18 15 5 15 11 0 17
-5 14 -13z m72 7 c3 -5 1 -10 -4 -10 -6 0 -11 5 -11 10 0 6 2 10 4 10 3 0 8
-4 11 -10z m888 -7 c-4 -10 -9 -11 -19 -2 -18 15 -18 15 5 15 11 0 17 -5 14
-13z m72 7 c3 -5 1 -10 -4 -10 -6 0 -11 5 -11 10 0 6 2 10 4 10 3 0 8 -4 11
-10z m247 3 c-6 -3 -9 -10 -5 -16 4 -7 -2 -5 -13 3 -10 8 -20 15 -22 16 -2 1
10 1 25 1 15 0 22 -2 15 -4z"/>
<path d="M1547 2414 c-8 -8 1 -24 12 -24 4 0 8 7 8 15 0 16 -9 20 -20 9z"/>
<path d="M1867 2414 c-8 -8 1 -24 12 -24 4 0 8 7 8 15 0 16 -9 20 -20 9z"/>
<path d="M675 2401 c-6 -11 13 -26 22 -17 4 3 1 6 -6 6 -7 0 -9 5 -6 10 3 6 4
10 1 10 -3 0 -7 -4 -11 -9z"/>
<path d="M1110 2400 c-13 -8 -12 -10 3 -10 9 0 17 5 17 10 0 12 -1 12 -20 0z"/>
<path d="M1192 2394 c-7 -8 -8 -14 -3 -14 10 0 25 19 20 25 -2 1 -10 -3 -17
-11z"/>
<path d="M1296 2395 c4 -8 8 -15 10 -15 2 0 4 7 4 15 0 8 -4 15 -10 15 -5 0
-7 -7 -4 -15z"/>
<path d="M1616 2395 c4 -8 8 -15 10 -15 2 0 4 7 4 15 0 8 -4 15 -10 15 -5 0
-7 -7 -4 -15z"/>
<path d="M2312 2394 c-7 -8 -8 -14 -3 -14 10 0 25 19 20 25 -2 1 -10 -3 -17
-11z"/>
<path d="M1260 2386 c0 -2 7 -6 15 -10 8 -3 15 -1 15 4 0 6 -7 10 -15 10 -8 0
-15 -2 -15 -4z"/>
<path d="M2380 2386 c0 -2 7 -6 15 -10 8 -3 15 -1 15 4 0 6 -7 10 -15 10 -8 0
-15 -2 -15 -4z"/>
<path d="M2586 2351 c-4 -5 -2 -12 3 -15 5 -4 12 -2 15 3 4 5 2 12 -3 15 -5 4
-12 2 -15 -3z"/>
<path d="M606 2161 c-3 -4 1 -17 10 -27 14 -18 15 -18 5 2 -6 12 -7 24 -4 28
3 3 4 6 0 6 -3 0 -8 -4 -11 -9z"/>
<path d="M605 2060 c-3 -5 -1 -10 4 -10 6 0 11 5 11 10 0 6 -2 10 -4 10 -3 0
-8 -4 -11 -10z"/>
<path d="M598 1933 c7 -3 16 -2 19 1 4 3 -2 6 -13 5 -11 0 -14 -3 -6 -6z"/>
<path d="M2592 1866 c7 -8 15 -12 17 -11 5 6 -10 25 -20 25 -5 0 -4 -6 3 -14z"/>
<path d="M1070 1820 c0 -6 7 -10 15 -10 8 0 15 2 15 4 0 2 -7 6 -15 10 -8 3
-15 1 -15 -4z"/>
<path d="M1630 1820 c0 -5 5 -10 11 -10 5 0 7 -4 4 -10 -3 -5 0 -7 8 -4 8 3
18 0 22 -5 7 -13 25 -5 25 10 0 6 -5 7 -10 4 -6 -4 -22 1 -35 9 -14 9 -25 12
-25 6z"/>
<path d="M2110 1820 c0 -5 5 -10 11 -10 5 0 7 -4 4 -10 -3 -5 0 -7 8 -4 8 3
18 0 22 -5 7 -13 25 -5 25 10 0 6 -5 7 -10 4 -6 -4 -22 1 -35 9 -14 9 -25 12
-25 6z"/>
<path d="M795 1810 c-3 -6 1 -7 9 -4 18 7 21 14 7 14 -6 0 -13 -4 -16 -10z"/>
<path d="M1115 1810 c-3 -6 1 -7 9 -4 18 7 21 14 7 14 -6 0 -13 -4 -16 -10z"/>
<path d="M1410 1809 c0 -5 5 -7 10 -4 6 3 10 8 10 11 0 2 -4 4 -10 4 -5 0 -10
-5 -10 -11z"/>
<path d="M1510 1809 c0 -5 -4 -7 -10 -4 -5 3 -10 1 -10 -4 0 -15 11 -13 34 4
17 13 18 15 3 15 -9 0 -17 -5 -17 -11z"/>
<path d="M1890 1809 c0 -5 5 -7 10 -4 6 3 10 8 10 11 0 2 -4 4 -10 4 -5 0 -10
-5 -10 -11z"/>
<path d="M1990 1809 c0 -5 -4 -7 -10 -4 -5 3 -10 1 -10 -4 0 -15 11 -13 34 4
17 13 18 15 3 15 -9 0 -17 -5 -17 -11z"/>
<path d="M2370 1809 c0 -5 5 -7 10 -4 6 3 10 8 10 11 0 2 -4 4 -10 4 -5 0 -10
-5 -10 -11z"/>
<path d="M830 1800 c0 -5 7 -7 15 -4 8 4 15 8 15 10 0 2 -7 4 -15 4 -8 0 -15
-4 -15 -10z"/>
<path d="M1150 1800 c0 -5 7 -7 15 -4 8 4 15 8 15 10 0 2 -7 4 -15 4 -8 0 -15
-4 -15 -10z"/>
<path d="M990 1400 c-13 -8 -12 -10 3 -10 9 0 17 5 17 10 0 12 -1 12 -20 0z"/>
<path d="M1036 1395 c-17 -13 -18 -15 -3 -15 9 0 17 5 17 11 0 5 5 7 10 4 6
-3 10 -1 10 4 0 15 -11 13 -34 -4z"/>
<path d="M1341 1394 c0 -11 3 -14 6 -6 3 7 2 16 -1 19 -3 4 -6 -2 -5 -13z"/>
<path d="M1390 1400 c-13 -8 -12 -10 3 -10 9 0 17 5 17 10 0 12 -1 12 -20 0z"/>
<path d="M1550 1400 c-13 -8 -12 -10 3 -10 9 0 17 5 17 10 0 12 -1 12 -20 0z"/>
<path d="M1623 1402 c-9 -6 -7 -11 7 -20 12 -7 20 -8 20 -2 0 5 -5 10 -11 10
-5 0 -7 5 -4 10 7 12 4 12 -12 2z"/>
<path d="M1661 1394 c0 -11 3 -14 6 -6 3 7 2 16 -1 19 -3 4 -6 -2 -5 -13z"/>
<path d="M1710 1400 c-13 -8 -12 -10 3 -10 9 0 17 5 17 10 0 12 -1 12 -20 0z"/>
<path d="M1870 1400 c-13 -8 -12 -10 3 -10 9 0 17 5 17 10 0 12 -1 12 -20 0z"/>
<path d="M2110 1400 c-13 -8 -12 -10 3 -10 9 0 17 5 17 10 0 12 -1 12 -20 0z"/>
<path d="M2156 1395 c-17 -13 -18 -15 -3 -15 9 0 17 5 17 11 0 5 5 7 10 4 6
-3 10 -1 10 4 0 15 -11 13 -34 -4z"/>
<path d="M735 1390 c-3 -5 -1 -10 4 -10 6 0 11 5 11 10 0 6 -2 10 -4 10 -3 0
-8 -4 -11 -10z"/>
<path d="M1135 1390 c-3 -5 -1 -10 4 -10 6 0 11 5 11 10 0 6 -2 10 -4 10 -3 0
-8 -4 -11 -10z"/>
<path d="M1215 1390 c-3 -5 -1 -10 4 -10 6 0 11 5 11 10 0 6 -2 10 -4 10 -3 0
-8 -4 -11 -10z"/>
<path d="M1430 1390 c-9 -6 -10 -10 -3 -10 6 0 15 5 18 10 8 12 4 12 -15 0z"/>
<path d="M1750 1390 c-9 -6 -10 -10 -3 -10 6 0 15 5 18 10 8 12 4 12 -15 0z"/>
<path d="M2255 1390 c-3 -5 -1 -10 4 -10 6 0 11 5 11 10 0 6 -2 10 -4 10 -3 0
-8 -4 -11 -10z"/>
<path d="M2335 1390 c-3 -5 -1 -10 4 -10 6 0 11 5 11 10 0 6 -2 10 -4 10 -3 0
-8 -4 -11 -10z"/>
<path d="M2583 1365 c0 -8 4 -15 9 -15 4 0 8 4 8 9 0 6 -4 12 -8 15 -5 3 -9
-1 -9 -9z"/>
<path d="M598 1303 c7 -3 16 -2 19 1 4 3 -2 6 -13 5 -11 0 -14 -3 -6 -6z"/>
<path d="M595 860 c-8 -13 9 -20 24 -11 10 6 9 10 -3 14 -8 3 -18 2 -21 -3z"/>
<path d="M790 820 c0 -6 7 -10 15 -10 8 0 15 2 15 4 0 2 -7 6 -15 10 -8 3 -15
1 -15 -4z"/>
<path d="M875 809 c-11 -16 -1 -19 13 -3 7 8 8 14 3 14 -5 0 -13 -5 -16 -11z"/>
<path d="M1278 813 c7 -3 16 -2 19 1 4 3 -2 6 -13 5 -11 0 -14 -3 -6 -6z"/>
<path d="M1355 809 c-11 -16 -1 -19 13 -3 7 8 8 14 3 14 -5 0 -13 -5 -16 -11z"/>
<path d="M1835 809 c-11 -16 -1 -19 13 -3 7 8 8 14 3 14 -5 0 -13 -5 -16 -11z"/>
<path d="M2238 813 c7 -3 16 -2 19 1 4 3 -2 6 -13 5 -11 0 -14 -3 -6 -6z"/>
<path d="M2315 809 c-11 -16 -1 -19 13 -3 7 8 8 14 3 14 -5 0 -13 -5 -16 -11z"/>
<path d="M1430 800 c0 -5 7 -7 15 -4 8 4 15 8 15 10 0 2 -7 4 -15 4 -8 0 -15
-4 -15 -10z"/>
<path d="M1470 806 c0 -2 7 -7 16 -10 8 -3 12 -2 9 4 -6 10 -25 14 -25 6z"/>
<path d="M2390 800 c0 -5 7 -7 15 -4 8 4 15 8 15 10 0 2 -7 4 -15 4 -8 0 -15
-4 -15 -10z"/>
</g>
</svg>
